<?xml version="1.0" standalone="no"?><!-- Generator: Gravit.io --><svg xmlns="http://www.w3.org/2000/svg" xmlns:xlink="http://www.w3.org/1999/xlink" style="isolation:isolate" viewBox="0 0 458 166.963" width="458" height="166.963"><defs><clipPath id="_clipPath_ZLDjQYw5LhuEDh6ciCzGyV7ka4ZY3hJA"><rect width="458" height="166.963"/></clipPath></defs><g clip-path="url(#_clipPath_ZLDjQYw5LhuEDh6ciCzGyV7ka4ZY3hJA)"><g id="Layer1002"><g id="Layer1003"><path d=" M 2.148 71.485 C 8.779 94.961 29.676 116.562 49.589 127.678 L 49.585 127.649 L 49.562 127.472 L 49.558 127.443 L 49.547 127.354 L 49.543 127.325 L 49.539 127.295 L 49.536 127.266 L 49.522 127.147 L 49.519 127.118 L 49.5 126.94 L 49.497 126.91 L 49.489 126.821 L 49.486 126.791 L 49.483 126.761 L 49.463 126.531 L 49.457 126.463 C 49.45 126.364 49.443 126.264 49.437 126.165 L 49.435 126.137 L 49.435 126.135 L 49.433 126.105 C 49.426 125.995 49.421 125.885 49.416 125.775 C 47.809 124.791 46.734 123.02 46.734 121.003 C 46.734 118.942 47.856 117.138 49.521 116.168 L 49.521 97.28 C 42.389 88.195 36.426 72.28 27.251 69.566 C 21.152 67.762 9.936 69.705 2.147 71.485 L 2.148 71.485 Z  M 88.557 131.87 C 102.909 127.374 122.463 116.619 137.473 90.95 C 129.852 87.567 121.204 84.85 113.879 85.431 C 106.74 85.997 98.416 92.031 89.675 97.506 L 89.675 116.168 C 91.34 117.138 92.461 118.942 92.461 121.003 C 92.461 123.02 91.386 124.791 89.78 125.775 C 89.775 125.889 89.769 126.004 89.762 126.118 L 89.76 126.148 C 89.754 126.263 89.746 126.378 89.737 126.492 L 89.736 126.504 C 89.726 126.62 89.716 126.736 89.705 126.851 L 89.705 126.857 L 89.705 126.861 C 89.694 126.973 89.682 127.084 89.669 127.196 L 89.665 127.228 C 89.653 127.335 89.64 127.442 89.626 127.549 L 89.617 127.611 L 89.579 127.879 L 89.564 127.98 L 89.522 128.24 L 89.509 128.316 C 89.494 128.406 89.477 128.497 89.461 128.588 L 89.442 128.686 L 89.395 128.923 L 89.372 129.035 L 89.323 129.264 L 89.297 129.378 L 89.246 129.595 L 89.213 129.732 L 89.158 129.95 L 89.114 130.117 L 89.112 130.123 L 89.087 130.217 L 89.08 130.241 L 89.008 130.496 L 88.981 130.589 L 88.98 130.594 L 88.926 130.774 L 88.898 130.866 L 88.869 130.958 L 88.81 131.142 L 88.78 131.234 C 88.75 131.324 88.72 131.413 88.689 131.502 L 88.687 131.508 L 88.655 131.599 C 88.623 131.69 88.59 131.78 88.557 131.87 L 88.557 131.87 Z " fill-rule="evenodd" fill="rgb(22,118,47)"/><path d=" M 7.782 30.735 C 0.355 42.127 -1.298 54.29 0.901 66.149 C 9.124 64.249 27.37 60.863 34.131 66.336 C 40.769 71.709 45.117 80.327 49.521 87.465 L 49.521 77.357 C 48.616 76.492 48.052 75.275 48.052 73.927 C 48.052 73.588 48.088 73.257 48.156 72.938 C 46.778 71.864 45.89 70.189 45.89 68.313 C 45.89 66.383 46.828 64.668 48.272 63.599 L 48.272 62.771 C 48.272 61.254 48.433 59.771 48.736 58.337 C 41.946 49.128 36.088 34.271 27.251 31.657 C 21.625 29.993 13.657 30.221 7.782 30.735 L 7.782 30.735 Z  M 89.675 90.948 C 95.204 86.784 101.496 82.018 109.948 81.079 C 120.057 79.955 124.129 80.095 132.412 83.184 C 134.432 83.937 136.927 85.434 139.545 87.265 C 139.57 87.219 139.595 87.175 139.62 87.129 C 143.348 75.521 144.134 64.46 142.063 55.208 C 133.498 50.927 122.724 46.821 113.879 47.522 C 107.098 48.061 99.249 53.531 90.988 58.77 C 91.235 60.069 91.365 61.406 91.365 62.771 L 91.365 63.611 C 92.8 64.681 93.731 66.39 93.731 68.313 C 93.731 70.355 92.68 72.157 91.09 73.207 C 91.126 73.442 91.145 73.683 91.145 73.927 C 91.145 75.275 90.58 76.492 89.675 77.357 L 89.675 90.948 Z " fill-rule="evenodd" fill="rgb(242,231,1)"/><path d=" M 81.865 36.09 C 81.865 36.09 51.301 -6.605 13.732 24.166 C 20.693 23.93 29.356 24.562 34.131 28.428 C 41.574 34.453 46.138 44.556 51.131 52.08 C 54.154 46.825 59.334 42.933 65.48 41.667 L 65.905 36.949 C 65.959 36.346 66.043 35.722 66.207 35.137 C 66.668 33.504 67.924 32.245 69.729 32.214 C 71.539 32.182 72.838 33.401 73.355 35.021 C 73.54 35.603 73.644 36.226 73.72 36.83 C 73.725 36.872 73.729 36.907 73.733 36.949 L 74.158 41.667 C 80.806 43.036 86.322 47.478 89.203 53.394 C 94.846 49.151 101.255 44.136 109.948 43.17 C 120.057 42.047 124.129 42.187 132.412 45.276 C 134.688 46.125 137.569 47.918 140.549 50.07 C 133.765 31.874 113.956 23.081 81.865 36.09 L 81.865 36.09 Z " fill-rule="evenodd" fill="rgb(255,0,0)"/></g><g id="Layer1004"><path d=" M 52.795 73.271 L 86.402 73.271 C 87.103 73.271 87.676 73.844 87.676 74.545 L 87.676 74.545 C 87.676 75.246 87.103 75.819 86.402 75.819 L 52.795 75.819 C 52.094 75.819 51.521 75.246 51.521 74.545 L 51.521 74.545 C 51.521 73.844 52.094 73.271 52.795 73.271 Z " fill="none" vector-effect="non-scaling-stroke" stroke-width="1.165" stroke="rgb(129,168,150)" stroke-linejoin="round" stroke-linecap="round" stroke-miterlimit="4"/><path d=" M 52.326 120.636 L 86.871 120.636 C 88.038 120.636 88.993 121.591 88.993 122.758 L 88.993 122.758 C 88.993 123.926 88.038 124.88 86.871 124.88 L 52.326 124.88 C 51.159 124.88 50.204 123.926 50.204 122.758 L 50.204 122.758 C 50.204 121.591 51.159 120.636 52.326 120.636 L 52.326 120.636 Z " fill="none" vector-effect="non-scaling-stroke" stroke-width="1.165" stroke="rgb(129,168,150)" stroke-linejoin="round" stroke-linecap="round" stroke-miterlimit="4"/><path d=" M 52.99 78.336 L 86.206 78.336 L 86.206 118.119 L 52.99 118.119 L 52.99 78.336 Z  M 69.598 87.67 L 69.598 87.67 C 70.8 87.67 71.784 88.654 71.784 89.856 L 71.784 100.794 C 71.784 101.996 70.8 102.979 69.598 102.979 L 69.598 102.979 C 68.396 102.979 67.413 101.996 67.413 100.794 L 67.413 89.856 C 67.413 88.654 68.396 87.67 69.598 87.67 Z " fill="none" vector-effect="non-scaling-stroke" stroke-width="1.165" stroke="rgb(129,168,150)" stroke-linejoin="round" stroke-linecap="round" stroke-miterlimit="4"/><path d=" M 87.896 63.451 L 87.896 62.25 C 87.896 52.688 80.372 44.799 70.951 44.209 L 70.278 36.74 C 70.016 34.64 69.558 34.631 69.36 36.74 L 68.687 44.209 C 59.266 44.799 51.741 52.688 51.741 62.25 L 51.741 63.451 L 87.896 63.451 Z " fill="none" vector-effect="non-scaling-stroke" stroke-width="1.165" stroke="rgb(129,168,150)" stroke-linejoin="round" stroke-linecap="round" stroke-miterlimit="4"/><path d=" M 64.283 143.109 C 64.791 145.576 66.988 147.446 69.598 147.446 C 72.209 147.446 74.405 145.576 74.914 143.109 C 81.486 140.889 86.265 134.677 86.328 127.397 L 52.869 127.397 C 52.932 134.677 57.711 140.889 64.283 143.109 L 64.283 143.109 Z " fill="none" vector-effect="non-scaling-stroke" stroke-width="1.165" stroke="rgb(129,168,150)" stroke-linejoin="round" stroke-linecap="round" stroke-miterlimit="4"/><path d=" M 51.751 65.968 L 87.87 65.968 C 89.186 65.968 90.263 67.045 90.263 68.361 L 90.263 68.361 C 90.263 69.677 89.186 70.754 87.87 70.754 L 51.751 70.754 C 50.435 70.754 49.359 69.677 49.359 68.361 L 49.359 68.361 C 49.359 67.045 50.435 65.968 51.751 65.968 Z " fill="none" vector-effect="non-scaling-stroke" stroke-width="1.165" stroke="rgb(129,168,150)" stroke-linejoin="round" stroke-linecap="round" stroke-miterlimit="4"/></g><path d=" M 410.819 54.675 C 410.385 53.828 410.146 52.842 410.146 51.764 C 410.146 50.19 410.689 48.71 411.743 47.555 L 419.622 38.007 C 420.482 36.878 421.51 35.861 422.812 35.253 C 424.015 34.692 425.335 34.5 426.653 34.5 L 438.279 34.5 C 442.013 34.5 444.578 37.19 444.578 40.894 C 444.578 42.532 443.945 44.055 442.787 45.213 L 442.624 45.376 L 431.416 54.499 C 431.857 54.747 432.278 55.043 432.671 55.393 C 433.783 56.382 434.618 57.601 435.132 58.996 L 457.474 119.612 C 457.827 120.422 458 121.293 458 122.18 C 458 123.919 457.292 125.509 456.066 126.735 C 454.816 127.984 453.185 128.668 451.417 128.668 L 441.493 128.668 C 439.56 128.668 437.714 128.078 436.324 126.688 C 435.502 125.866 434.82 124.922 434.428 123.823 L 431.498 116.192 L 411.06 116.192 L 408.102 124.077 L 407.996 124.29 C 407.577 125.128 407.007 125.882 406.371 126.567 C 404.973 128.073 403.045 128.668 401.039 128.668 L 391.115 128.668 C 389.296 128.668 387.622 127.942 386.388 126.605 C 385.26 125.384 384.626 123.844 384.626 122.18 C 384.626 121.526 384.696 120.873 384.855 120.238 L 384.915 119.998 L 391.822 101.337 C 391.099 101.708 390.352 102.046 389.583 102.354 C 384.835 104.253 379.674 104.944 374.584 104.944 L 366.422 104.944 L 366.422 121.802 C 366.422 123.653 365.753 125.376 364.44 126.688 C 363.129 127.999 361.406 128.668 359.555 128.668 L 348.686 128.668 C 348.317 128.668 347.951 128.639 347.592 128.582 C 347.241 128.639 346.883 128.668 346.522 128.668 L 336.598 128.668 C 334.664 128.668 332.819 128.078 331.429 126.688 C 330.607 125.866 329.925 124.922 329.533 123.823 L 326.602 116.192 L 306.164 116.192 L 303.207 124.077 L 303.101 124.29 C 302.682 125.128 302.112 125.882 301.476 126.567 C 300.078 128.073 298.15 128.668 296.144 128.668 L 286.219 128.668 C 284.4 128.668 282.727 127.942 281.492 126.605 C 281.154 126.239 280.86 125.844 280.615 125.425 C 278.782 126.394 276.853 127.18 274.857 127.802 C 270.686 129.103 266.298 129.613 261.938 129.613 C 256.131 129.613 250.247 128.716 244.97 126.197 C 244.298 125.876 243.644 125.533 243.008 125.169 C 242.701 125.737 242.305 126.263 241.833 126.735 C 240.583 127.984 238.952 128.668 237.184 128.668 L 227.26 128.668 C 225.327 128.668 223.481 128.078 222.091 126.688 C 221.269 125.866 220.587 124.922 220.195 123.823 L 217.265 116.192 L 196.827 116.192 L 193.87 124.077 L 193.763 124.29 C 193.344 125.128 192.775 125.882 192.138 126.567 C 190.741 128.073 188.812 128.668 186.806 128.668 L 176.882 128.668 C 176.511 128.668 176.145 128.638 175.785 128.577 C 175.403 128.638 175.015 128.668 174.623 128.668 L 164.982 128.668 C 163.162 128.668 161.479 127.976 160.192 126.688 C 158.88 125.376 158.21 123.653 158.21 121.802 L 158.21 101.65 L 154.744 108.12 C 154.219 109.231 153.468 110.202 152.542 111.013 C 151.128 112.25 149.353 112.789 147.496 112.789 L 143.054 112.789 C 141.225 112.789 139.489 112.226 138.103 111.013 C 137.218 110.238 136.475 109.327 135.903 108.299 L 135.864 108.226 L 132.435 101.775 L 132.435 121.802 C 132.435 123.653 131.765 125.376 130.453 126.688 C 129.142 127.999 127.419 128.668 125.568 128.668 L 115.927 128.668 C 114.077 128.668 112.354 127.999 111.042 126.688 C 109.73 125.376 109.061 123.653 109.061 121.802 L 109.061 60.365 C 109.061 58.514 109.73 56.791 111.041 55.479 C 112.353 54.167 114.076 53.498 115.927 53.498 L 124.812 53.498 C 126.861 53.498 128.801 54.16 130.224 55.678 C 130.819 56.313 131.405 57.001 131.812 57.775 L 145.322 82.459 L 158.833 57.775 C 159.24 57.001 159.826 56.313 160.421 55.678 C 161.844 54.16 163.784 53.498 165.833 53.498 L 174.623 53.498 C 176.474 53.498 178.197 54.167 179.509 55.479 C 180.821 56.791 181.49 58.514 181.49 60.365 L 181.49 90.799 L 193.208 59.141 C 193.651 57.681 194.484 56.41 195.629 55.392 C 197.123 54.064 199.01 53.498 200.984 53.498 L 213.082 53.498 C 215.055 53.498 216.944 54.064 218.438 55.393 C 219.55 56.382 220.385 57.601 220.899 58.996 L 229.069 81.16 C 229.46 76.002 230.764 70.966 233.46 66.498 C 236.252 61.87 240.177 58.386 245.039 56.029 C 250.294 53.481 256.138 52.553 261.938 52.553 C 266.298 52.553 270.686 53.063 274.858 54.364 C 278.632 55.541 282.168 57.303 285.262 59.778 C 288.195 62.125 290.604 64.966 292.346 68.296 C 294.127 71.699 294.984 75.391 295.076 79.217 C 295.078 79.246 295.08 79.275 295.082 79.304 L 302.545 59.141 C 302.989 57.681 303.821 56.41 304.966 55.392 C 306.46 54.064 308.348 53.498 310.321 53.498 L 322.42 53.498 C 324.393 53.498 326.282 54.064 327.775 55.393 C 328.887 56.382 329.723 57.601 330.237 58.996 L 341.914 90.675 L 341.914 60.365 C 341.914 58.514 342.583 56.791 343.894 55.479 C 345.182 54.191 346.864 53.498 348.686 53.498 L 374.584 53.498 C 379.708 53.498 384.889 54.227 389.643 56.208 C 394.11 58.069 397.819 60.979 400.471 65.037 C 401.651 66.844 402.519 68.777 403.129 70.788 L 407.44 59.141 C 407.884 57.681 408.716 56.41 409.862 55.392 C 410.165 55.122 410.485 54.884 410.819 54.675 L 410.819 54.675 Z  M 293.368 83.934 C 293.286 84.02 293.2 84.103 293.112 84.184 C 291.867 85.334 290.286 85.946 288.592 85.946 L 277.723 85.946 C 276.063 85.946 274.464 85.5 273.145 84.464 C 271.807 83.413 271.017 81.926 270.557 80.317 L 270.536 80.245 L 270.518 80.172 C 270.121 78.583 269.301 76.133 267.804 75.214 C 266.077 74.153 263.931 73.847 261.938 73.847 C 259.738 73.847 257.508 74.277 255.862 75.832 C 254.084 77.511 253.669 81.029 253.584 83.312 C 253.39 88.492 253.394 93.678 253.584 98.858 C 253.668 101.144 254.083 104.654 255.862 106.335 C 257.508 107.889 259.738 108.319 261.938 108.319 C 263.959 108.319 266.091 107.996 267.836 106.915 C 269.349 105.977 270.12 103.67 270.505 102.047 L 270.529 101.948 L 270.557 101.85 C 271.017 100.24 271.807 98.753 273.145 97.703 C 274.464 96.666 276.063 96.22 277.723 96.22 L 288.592 96.22 C 288.668 96.22 288.744 96.221 288.819 96.224 L 293.368 83.934 Z  M 203.698 94.992 L 210.368 94.992 L 207.033 85.701 L 203.698 94.992 Z  M 313.036 94.992 L 319.705 94.992 L 316.371 85.701 L 313.036 94.992 Z  M 366.233 84.217 L 374.111 84.217 C 375.564 84.217 377.441 84.014 378.579 82.998 C 379.552 82.129 379.721 80.585 379.721 79.363 C 379.721 77.956 379.457 76.562 378.485 75.496 C 377.552 74.472 375.376 74.32 374.111 74.32 L 366.233 74.32 L 366.233 84.217 Z  M 417.931 94.992 L 424.6 94.992 L 421.266 85.701 L 417.931 94.992 Z " fill-rule="evenodd" fill="rgb(255,255,255)"/><path d=" M 115.927 124.165 C 115.234 124.165 114.667 123.944 114.226 123.503 C 113.785 123.062 113.564 122.495 113.564 121.802 L 113.564 60.365 C 113.564 59.672 113.785 59.105 114.226 58.664 C 114.667 58.223 115.234 58.002 115.927 58.002 L 124.812 58.002 C 125.757 58.002 126.466 58.254 126.938 58.758 C 127.411 59.262 127.71 59.64 127.836 59.893 L 145.322 91.84 L 162.808 59.893 C 162.934 59.64 163.233 59.262 163.706 58.758 C 164.178 58.254 164.887 58.002 165.833 58.002 L 174.623 58.002 C 175.316 58.002 175.883 58.223 176.324 58.664 C 176.765 59.105 176.986 59.672 176.986 60.365 L 176.986 121.802 C 176.986 122.495 176.765 123.062 176.324 123.503 C 175.883 123.944 175.316 124.165 174.623 124.165 L 164.982 124.165 C 164.352 124.165 163.816 123.944 163.375 123.503 C 162.934 123.062 162.713 122.495 162.713 121.802 L 162.713 83.711 L 150.71 106.112 C 150.458 106.679 150.08 107.183 149.575 107.624 C 149.071 108.065 148.378 108.286 147.496 108.286 L 143.054 108.286 C 142.235 108.286 141.573 108.065 141.069 107.624 C 140.565 107.183 140.155 106.679 139.84 106.112 L 127.931 83.711 L 127.931 121.802 C 127.931 122.495 127.71 123.062 127.269 123.503 C 126.828 123.944 126.261 124.165 125.568 124.165 L 115.927 124.165 Z  M 176.881 124.165 C 176.314 124.165 175.841 123.96 175.463 123.55 C 175.085 123.141 174.896 122.684 174.896 122.18 C 174.896 121.865 174.928 121.581 174.991 121.329 L 197.486 60.554 C 197.675 59.861 198.053 59.262 198.62 58.758 C 199.187 58.254 199.975 58.002 200.983 58.002 L 213.081 58.002 C 214.09 58.002 214.877 58.254 215.444 58.758 C 216.011 59.262 216.421 59.861 216.673 60.554 L 239.074 121.329 C 239.2 121.581 239.263 121.865 239.263 122.18 C 239.263 122.684 239.058 123.141 238.649 123.55 C 238.239 123.96 237.751 124.165 237.183 124.165 L 227.259 124.165 C 226.377 124.165 225.715 123.944 225.274 123.503 C 224.833 123.062 224.55 122.652 224.424 122.274 L 220.359 111.688 L 193.705 111.688 L 189.735 122.274 C 189.547 122.652 189.247 123.062 188.837 123.503 C 188.428 123.944 187.75 124.165 186.805 124.165 L 176.881 124.165 Z  M 197.297 99.495 L 216.767 99.495 L 207.032 72.369 L 197.297 99.495 Z  M 261.937 125.11 C 256.077 125.11 251.067 124.117 246.909 122.132 C 242.75 120.148 239.536 117.249 237.268 113.437 C 234.999 109.624 233.739 104.978 233.487 99.495 C 233.424 96.912 233.392 94.139 233.392 91.178 C 233.392 88.216 233.424 85.381 233.487 82.671 C 233.739 77.252 235.015 72.637 237.315 68.824 C 239.615 65.012 242.844 62.098 247.003 60.081 C 251.162 58.065 256.14 57.057 261.937 57.057 C 266.222 57.057 270.081 57.592 273.515 58.664 C 276.95 59.735 279.927 61.279 282.447 63.295 C 284.968 65.311 286.937 67.674 288.355 70.384 C 289.773 73.094 290.513 76.118 290.576 79.458 C 290.639 80.025 290.466 80.497 290.056 80.875 C 289.646 81.253 289.158 81.443 288.591 81.443 L 277.721 81.443 C 276.965 81.443 276.367 81.269 275.926 80.923 C 275.485 80.576 275.138 79.962 274.886 79.08 C 273.941 75.299 272.365 72.731 270.16 71.376 C 267.955 70.022 265.214 69.344 261.937 69.344 C 258.093 69.344 255.037 70.415 252.769 72.558 C 250.5 74.7 249.272 78.229 249.082 83.144 C 248.894 88.311 248.894 93.604 249.082 99.023 C 249.272 103.938 250.5 107.467 252.769 109.609 C 255.037 111.751 258.093 112.822 261.937 112.822 C 265.214 112.822 267.97 112.129 270.207 110.743 C 272.444 109.357 274.004 106.805 274.886 103.087 C 275.138 102.205 275.485 101.591 275.926 101.244 C 276.367 100.897 276.965 100.724 277.721 100.724 L 288.591 100.724 C 289.158 100.724 289.646 100.913 290.056 101.291 C 290.466 101.669 290.639 102.142 290.576 102.709 C 290.513 106.049 289.773 109.073 288.355 111.783 C 286.937 114.492 284.968 116.855 282.447 118.872 C 279.927 120.888 276.95 122.432 273.515 123.503 C 270.081 124.574 266.222 125.11 261.937 125.11 L 261.937 125.11 Z  M 286.218 124.165 C 285.651 124.165 285.178 123.96 284.8 123.55 C 284.422 123.141 284.233 122.684 284.233 122.18 C 284.233 121.865 284.265 121.581 284.328 121.329 L 306.823 60.554 C 307.012 59.861 307.39 59.262 307.957 58.758 C 308.524 58.254 309.312 58.002 310.32 58.002 L 322.418 58.002 C 323.426 58.002 324.214 58.254 324.781 58.758 C 325.348 59.262 325.758 59.861 326.01 60.554 L 348.411 121.329 C 348.537 121.581 348.6 121.865 348.6 122.18 C 348.6 122.684 348.395 123.141 347.985 123.55 C 347.576 123.96 347.087 124.165 346.52 124.165 L 336.596 124.165 C 335.714 124.165 335.052 123.944 334.611 123.503 C 334.17 123.062 333.886 122.652 333.76 122.274 L 329.696 111.688 L 303.042 111.688 L 299.072 122.274 C 298.883 122.652 298.584 123.062 298.174 123.503 C 297.765 123.944 297.087 124.165 296.142 124.165 L 286.218 124.165 Z  M 306.634 99.495 L 326.104 99.495 L 316.369 72.369 L 306.634 99.495 Z  M 348.684 124.165 C 348.054 124.165 347.518 123.944 347.077 123.503 C 346.636 123.062 346.415 122.495 346.415 121.802 L 346.415 60.365 C 346.415 59.672 346.636 59.105 347.077 58.664 C 347.518 58.223 348.054 58.002 348.684 58.002 L 374.582 58.002 C 379.686 58.002 384.128 58.79 387.909 60.365 C 391.69 61.94 394.62 64.319 396.699 67.501 C 398.778 70.683 399.818 74.669 399.818 79.458 C 399.818 84.183 398.778 88.106 396.699 91.225 C 394.62 94.344 391.69 96.66 387.909 98.172 C 384.128 99.685 379.686 100.441 374.582 100.441 L 361.917 100.441 L 361.917 121.802 C 361.917 122.495 361.696 123.062 361.255 123.503 C 360.814 123.944 360.247 124.165 359.554 124.165 L 348.684 124.165 Z  M 361.727 88.72 L 374.109 88.72 C 377.323 88.72 379.812 87.933 381.576 86.358 C 383.34 84.782 384.223 82.451 384.223 79.363 C 384.223 76.528 383.419 74.228 381.812 72.463 C 380.206 70.699 377.638 69.817 374.109 69.817 L 361.727 69.817 L 361.727 88.72 Z  M 391.112 124.165 C 390.545 124.165 390.073 123.96 389.695 123.55 C 389.316 123.141 389.128 122.684 389.128 122.18 C 389.128 121.865 389.159 121.581 389.222 121.329 L 411.717 60.554 C 411.906 59.861 412.284 59.262 412.851 58.758 C 413.419 58.254 414.206 58.002 415.214 58.002 L 427.313 58.002 C 428.321 58.002 429.109 58.254 429.676 58.758 C 430.243 59.262 430.652 59.861 430.904 60.554 L 453.305 121.329 C 453.431 121.581 453.494 121.865 453.494 122.18 C 453.494 122.684 453.289 123.141 452.88 123.55 C 452.47 123.96 451.982 124.165 451.415 124.165 L 441.49 124.165 C 440.608 124.165 439.947 123.944 439.506 123.503 C 439.064 123.062 438.781 122.652 438.655 122.274 L 434.591 111.688 L 407.936 111.688 L 403.967 122.274 C 403.778 122.652 403.478 123.062 403.069 123.503 C 402.659 123.944 401.982 124.165 401.037 124.165 L 391.112 124.165 Z  M 411.528 99.495 L 430.999 99.495 L 421.264 72.369 L 411.528 99.495 Z  M 416.16 53.276 C 415.151 53.276 414.647 52.772 414.647 51.764 C 414.647 51.26 414.805 50.85 415.12 50.535 L 423.154 40.8 C 423.721 40.044 424.241 39.555 424.713 39.335 C 425.186 39.114 425.832 39.004 426.651 39.004 L 438.277 39.004 C 439.474 39.004 440.073 39.634 440.073 40.894 C 440.073 41.335 439.915 41.714 439.6 42.029 L 427.407 51.953 C 426.903 52.394 426.415 52.725 425.942 52.945 C 425.47 53.166 424.824 53.276 424.005 53.276 L 416.16 53.276 Z " fill-rule="evenodd" fill="rgb(22,118,47)"/><path d=" M 138.474 150.433 L 136.983 150.433 L 136.983 140.091 L 133.279 140.091 L 133.279 138.776 L 142.178 138.776 L 142.178 140.091 L 138.474 140.091 L 138.474 150.433 Z  M 144.952 150.433 L 143.541 150.433 L 143.541 142.223 L 144.888 142.223 L 144.888 143.185 C 145.572 142.458 146.358 142.095 147.245 142.095 C 147.854 142.095 148.384 142.212 148.832 142.448 L 148.832 143.73 C 148.32 143.463 147.748 143.329 147.117 143.329 C 146.283 143.329 145.562 143.672 144.952 144.356 L 144.952 150.433 Z  M 156.609 150.433 L 155.198 150.433 L 154.99 149.374 C 154.68 149.802 154.284 150.125 153.803 150.345 C 153.322 150.564 152.836 150.673 152.344 150.673 C 151.489 150.673 150.81 150.419 150.308 149.912 C 149.805 149.404 149.554 148.776 149.554 148.027 C 149.554 147.119 149.861 146.432 150.476 145.967 C 151.091 145.502 151.943 145.27 153.033 145.27 L 154.958 145.27 L 154.958 144.708 C 154.958 144.153 154.803 143.757 154.493 143.522 C 154.183 143.287 153.691 143.169 153.018 143.169 C 152.066 143.169 151.147 143.367 150.26 143.762 L 150.26 142.512 C 151.222 142.159 152.205 141.982 153.21 141.982 C 155.316 141.982 156.369 142.891 156.369 144.708 L 156.369 148.861 L 156.609 150.433 Z  M 154.958 148.027 L 154.958 146.296 L 153.033 146.296 C 151.687 146.296 151.013 146.862 151.013 147.996 C 151.013 148.444 151.15 148.802 151.422 149.07 C 151.695 149.337 152.077 149.471 152.569 149.471 C 153.595 149.471 154.391 148.989 154.958 148.027 Z  M 159.896 150.433 L 158.485 150.433 L 158.726 148.861 L 158.726 138.776 L 160.137 138.776 L 160.137 143.041 C 160.746 142.335 161.606 141.982 162.718 141.982 C 163.766 141.982 164.578 142.327 165.155 143.017 C 165.733 143.706 166.021 144.756 166.021 146.168 C 166.021 147.675 165.746 148.802 165.195 149.551 C 164.645 150.299 163.878 150.673 162.894 150.673 C 161.708 150.673 160.778 150.229 160.104 149.342 L 159.896 150.433 Z  M 160.137 144.243 L 160.137 147.883 C 160.703 148.931 161.526 149.455 162.606 149.455 C 163.91 149.455 164.562 148.375 164.562 146.216 C 164.562 145.125 164.391 144.35 164.049 143.891 C 163.707 143.431 163.173 143.201 162.446 143.201 C 161.516 143.201 160.746 143.549 160.137 144.243 Z  M 174.519 150.433 L 173.109 150.433 L 172.9 149.374 C 172.59 149.802 172.195 150.125 171.713 150.345 C 171.232 150.564 170.746 150.673 170.254 150.673 C 169.399 150.673 168.721 150.419 168.218 149.912 C 167.716 149.404 167.464 148.776 167.464 148.027 C 167.464 147.119 167.772 146.432 168.386 145.967 C 169.001 145.502 169.854 145.27 170.944 145.27 L 172.868 145.27 L 172.868 144.708 C 172.868 144.153 172.713 143.757 172.403 143.522 C 172.093 143.287 171.601 143.169 170.928 143.169 C 169.977 143.169 169.057 143.367 168.17 143.762 L 168.17 142.512 C 169.132 142.159 170.115 141.982 171.12 141.982 C 173.226 141.982 174.279 142.891 174.279 144.708 L 174.279 148.861 L 174.519 150.433 Z  M 172.868 148.027 L 172.868 146.296 L 170.944 146.296 C 169.597 146.296 168.923 146.862 168.923 147.996 C 168.923 148.444 169.06 148.802 169.332 149.07 C 169.605 149.337 169.987 149.471 170.479 149.471 C 171.505 149.471 172.301 148.989 172.868 148.027 L 172.868 148.027 Z  M 179.65 149.374 L 179.65 150.497 C 179.362 150.614 179.004 150.673 178.576 150.673 C 177.336 150.673 176.716 149.962 176.716 148.541 L 176.716 138.776 L 178.127 138.776 L 178.127 148.46 C 178.127 149.145 178.389 149.486 178.913 149.486 C 179.127 149.486 179.373 149.449 179.65 149.374 Z  M 188.068 150.433 L 186.657 150.433 L 186.657 145.237 C 186.657 144.5 186.51 143.976 186.216 143.666 C 185.923 143.356 185.476 143.201 184.878 143.201 C 183.926 143.201 183.135 143.549 182.504 144.243 L 182.504 150.433 L 181.093 150.433 L 181.093 138.776 L 182.504 138.776 L 182.504 143.041 C 183.178 142.335 184.081 141.982 185.214 141.982 C 186.08 141.982 186.772 142.247 187.291 142.776 C 187.809 143.305 188.068 144.062 188.068 145.045 L 188.068 150.433 Z  M 196.919 150.433 L 195.508 150.433 L 195.3 149.374 C 194.99 149.802 194.594 150.125 194.113 150.345 C 193.632 150.564 193.146 150.673 192.654 150.673 C 191.799 150.673 191.12 150.419 190.618 149.912 C 190.115 149.404 189.864 148.776 189.864 148.027 C 189.864 147.119 190.171 146.432 190.786 145.967 C 191.401 145.502 192.253 145.27 193.344 145.27 L 195.268 145.27 L 195.268 144.708 C 195.268 144.153 195.113 143.757 194.803 143.522 C 194.493 143.287 194.001 143.169 193.328 143.169 C 192.376 143.169 191.457 143.367 190.57 143.762 L 190.57 142.512 C 191.532 142.159 192.515 141.982 193.52 141.982 C 195.626 141.982 196.679 142.891 196.679 144.708 L 196.679 148.861 L 196.919 150.433 Z  M 195.268 148.027 L 195.268 146.296 L 193.344 146.296 C 191.997 146.296 191.323 146.862 191.323 147.996 C 191.323 148.444 191.46 148.802 191.732 149.07 C 192.005 149.337 192.387 149.471 192.879 149.471 C 193.905 149.471 194.701 148.989 195.268 148.027 L 195.268 148.027 Z  M 206.011 150.433 L 204.6 150.433 L 204.6 145.237 C 204.6 144.5 204.453 143.976 204.158 143.666 C 203.865 143.356 203.418 143.201 202.82 143.201 C 201.89 143.201 201.099 143.591 200.447 144.372 L 200.447 150.433 L 199.036 150.433 L 199.036 142.223 L 200.383 142.223 L 200.383 143.169 C 200.682 142.827 201.077 142.544 201.569 142.319 C 202.061 142.095 202.59 141.982 203.156 141.982 C 204.022 141.982 204.714 142.247 205.233 142.776 C 205.751 143.305 206.011 144.062 206.011 145.045 L 206.011 150.433 Z  M 215.503 150.433 L 214.092 150.433 L 213.883 149.438 C 213.253 150.262 212.355 150.673 211.19 150.673 C 210.206 150.673 209.423 150.296 208.841 149.543 C 208.258 148.789 207.967 147.664 207.967 146.168 C 207.967 143.378 209.095 141.982 211.35 141.982 C 212.291 141.982 213.124 142.244 213.851 142.768 L 213.851 138.776 L 215.262 138.776 L 215.262 148.861 L 215.503 150.433 Z  M 213.851 147.979 L 213.851 143.971 C 213.199 143.458 212.456 143.201 211.622 143.201 C 210.864 143.201 210.308 143.431 209.955 143.891 C 209.602 144.35 209.426 145.125 209.426 146.216 C 209.426 148.375 210.131 149.455 211.542 149.455 C 212.547 149.455 213.317 148.963 213.851 147.979 Z  M 217.267 146.328 C 217.267 143.431 218.534 141.982 221.067 141.982 C 223.6 141.982 224.867 143.431 224.867 146.328 C 224.867 149.225 223.6 150.673 221.067 150.673 C 218.534 150.673 217.267 149.225 217.267 146.328 Z  M 221.051 149.486 C 221.906 149.486 222.513 149.23 222.871 148.717 C 223.229 148.204 223.408 147.413 223.408 146.344 C 223.408 145.264 223.229 144.465 222.871 143.947 C 222.513 143.428 221.911 143.169 221.067 143.169 C 220.222 143.169 219.621 143.428 219.263 143.947 C 218.905 144.465 218.726 145.264 218.726 146.344 C 218.726 147.413 218.902 148.204 219.255 148.717 C 219.608 149.23 220.206 149.486 221.051 149.486 Z  M 238.577 150.433 L 237.165 150.433 L 236.957 149.438 C 236.326 150.262 235.429 150.673 234.263 150.673 C 233.28 150.673 232.497 150.296 231.914 149.543 C 231.332 148.789 231.041 147.664 231.041 146.168 C 231.041 143.378 232.168 141.982 234.424 141.982 C 235.364 141.982 236.198 142.244 236.925 142.768 L 236.925 138.776 L 238.336 138.776 L 238.336 148.861 L 238.577 150.433 Z  M 236.925 147.979 L 236.925 143.971 C 236.273 143.458 235.53 143.201 234.696 143.201 C 233.937 143.201 233.381 143.431 233.029 143.891 C 232.676 144.35 232.5 145.125 232.5 146.216 C 232.5 148.375 233.205 149.455 234.616 149.455 C 235.621 149.455 236.391 148.963 236.925 147.979 Z  M 246.722 148.845 L 246.722 150.128 C 245.814 150.492 244.953 150.673 244.141 150.673 C 242.762 150.673 241.762 150.32 241.142 149.615 C 240.522 148.909 240.212 147.819 240.212 146.344 C 240.212 144.944 240.498 143.867 241.07 143.113 C 241.642 142.359 242.585 141.982 243.9 141.982 C 245.097 141.982 245.96 142.295 246.49 142.921 C 247.019 143.546 247.283 144.484 247.283 145.735 L 247.283 146.713 L 241.671 146.713 C 241.671 147.632 241.856 148.319 242.224 148.773 C 242.593 149.227 243.205 149.455 244.061 149.455 C 244.926 149.455 245.814 149.251 246.722 148.845 L 246.722 148.845 Z  M 241.687 145.622 L 245.872 145.622 C 245.872 144.735 245.725 144.094 245.431 143.698 C 245.137 143.303 244.621 143.105 243.884 143.105 C 243.157 143.105 242.62 143.311 242.273 143.722 C 241.925 144.134 241.73 144.767 241.687 145.622 L 241.687 145.622 Z  M 259.886 148.909 L 259.886 150.192 C 259.191 150.513 258.315 150.673 257.257 150.673 C 255.91 150.673 254.926 150.31 254.306 149.583 C 253.686 148.856 253.377 147.755 253.377 146.28 C 253.377 144.815 253.702 143.733 254.354 143.033 C 255.007 142.332 256.038 141.982 257.449 141.982 C 258.294 141.982 259.079 142.111 259.806 142.367 L 259.806 143.65 C 259.09 143.351 258.325 143.201 257.513 143.201 C 256.594 143.201 255.915 143.442 255.477 143.923 C 255.039 144.404 254.819 145.205 254.819 146.328 C 254.819 147.407 255.02 148.198 255.421 148.701 C 255.822 149.203 256.508 149.455 257.481 149.455 C 258.283 149.455 259.085 149.273 259.886 148.909 L 259.886 148.909 Z  M 261.361 146.328 C 261.361 143.431 262.628 141.982 265.161 141.982 C 267.695 141.982 268.962 143.431 268.962 146.328 C 268.962 149.225 267.695 150.673 265.161 150.673 C 262.628 150.673 261.361 149.225 261.361 146.328 Z  M 265.145 149.486 C 266 149.486 266.607 149.23 266.965 148.717 C 267.323 148.204 267.503 147.413 267.503 146.344 C 267.503 145.264 267.323 144.465 266.965 143.947 C 266.607 143.428 266.006 143.169 265.161 143.169 C 264.317 143.169 263.716 143.428 263.358 143.947 C 262.999 144.465 262.82 145.264 262.82 146.344 C 262.82 147.413 262.997 148.204 263.35 148.717 C 263.702 149.23 264.301 149.486 265.145 149.486 L 265.145 149.486 Z  M 272.377 150.433 L 270.966 150.433 L 270.966 142.223 L 272.313 142.223 L 272.313 143.185 C 272.997 142.458 273.783 142.095 274.67 142.095 C 275.279 142.095 275.808 142.212 276.257 142.448 L 276.257 143.73 C 275.744 143.463 275.172 143.329 274.542 143.329 C 273.708 143.329 272.986 143.672 272.377 144.356 L 272.377 150.433 Z  M 284.034 150.433 L 282.623 150.433 L 282.414 149.374 C 282.105 149.802 281.709 150.125 281.228 150.345 C 280.747 150.564 280.261 150.673 279.769 150.673 C 278.914 150.673 278.235 150.419 277.732 149.912 C 277.23 149.404 276.979 148.776 276.979 148.027 C 276.979 147.119 277.286 146.432 277.901 145.967 C 278.515 145.502 279.368 145.27 280.458 145.27 L 282.382 145.27 L 282.382 144.708 C 282.382 144.153 282.228 143.757 281.917 143.522 C 281.607 143.287 281.116 143.169 280.442 143.169 C 279.491 143.169 278.572 143.367 277.684 143.762 L 277.684 142.512 C 278.646 142.159 279.63 141.982 280.635 141.982 C 282.74 141.982 283.793 142.891 283.793 144.708 L 283.793 148.861 L 284.034 150.433 Z  M 282.382 148.027 L 282.382 146.296 L 280.458 146.296 C 279.111 146.296 278.438 146.862 278.438 147.996 C 278.438 148.444 278.574 148.802 278.847 149.07 C 279.119 149.337 279.502 149.471 279.993 149.471 C 281.02 149.471 281.816 148.989 282.382 148.027 L 282.382 148.027 Z  M 292.259 148.909 L 292.259 150.192 C 291.565 150.513 290.688 150.673 289.63 150.673 C 288.283 150.673 287.299 150.31 286.68 149.583 C 286.06 148.856 285.75 147.755 285.75 146.28 C 285.75 144.815 286.076 143.733 286.728 143.033 C 287.38 142.332 288.411 141.982 289.822 141.982 C 290.667 141.982 291.452 142.111 292.179 142.367 L 292.179 143.65 C 291.463 143.351 290.699 143.201 289.886 143.201 C 288.967 143.201 288.288 143.442 287.85 143.923 C 287.412 144.404 287.192 145.205 287.192 146.328 C 287.192 147.407 287.393 148.198 287.794 148.701 C 288.195 149.203 288.881 149.455 289.854 149.455 C 290.656 149.455 291.458 149.273 292.259 148.909 Z  M 288.732 153.944 L 286.872 153.944 L 289.037 151.122 L 290.191 151.122 L 288.732 153.944 Z  M 300.629 150.433 L 299.218 150.433 L 299.01 149.374 C 298.7 149.802 298.304 150.125 297.823 150.345 C 297.342 150.564 296.856 150.673 296.364 150.673 C 295.509 150.673 294.83 150.419 294.328 149.912 C 293.825 149.404 293.574 148.776 293.574 148.027 C 293.574 147.119 293.881 146.432 294.496 145.967 C 295.111 145.502 295.963 145.27 297.054 145.27 L 298.978 145.27 L 298.978 144.708 C 298.978 144.153 298.823 143.757 298.513 143.522 C 298.203 143.287 297.711 143.169 297.038 143.169 C 296.086 143.169 295.167 143.367 294.28 143.762 L 294.28 142.512 C 295.242 142.159 296.225 141.982 297.23 141.982 C 299.336 141.982 300.389 142.891 300.389 144.708 L 300.389 148.861 L 300.629 150.433 Z  M 298.978 148.027 L 298.978 146.296 L 297.054 146.296 C 295.707 146.296 295.033 146.862 295.033 147.996 C 295.033 148.444 295.17 148.802 295.442 149.07 C 295.715 149.337 296.097 149.471 296.589 149.471 C 297.615 149.471 298.411 148.989 298.978 148.027 L 298.978 148.027 Z  M 299.218 138.487 L 300.212 138.487 C 300.17 139.192 299.982 139.727 299.651 140.091 C 299.32 140.454 298.898 140.636 298.385 140.636 C 297.989 140.636 297.535 140.451 297.022 140.082 C 296.508 139.714 296.161 139.529 295.979 139.529 C 295.605 139.529 295.365 139.898 295.258 140.636 L 294.264 140.636 C 294.296 139.941 294.483 139.409 294.825 139.04 C 295.167 138.671 295.589 138.487 296.091 138.487 C 296.412 138.487 296.712 138.575 296.989 138.752 C 297.267 138.928 297.527 139.107 297.767 139.289 C 298.008 139.471 298.246 139.561 298.481 139.561 C 298.94 139.561 299.186 139.203 299.218 138.487 L 299.218 138.487 Z  M 302.345 146.328 C 302.345 143.431 303.612 141.982 306.145 141.982 C 308.678 141.982 309.945 143.431 309.945 146.328 C 309.945 149.225 308.678 150.673 306.145 150.673 C 303.612 150.673 302.345 149.225 302.345 146.328 Z  M 306.129 149.486 C 306.984 149.486 307.591 149.23 307.949 148.717 C 308.307 148.204 308.486 147.413 308.486 146.344 C 308.486 145.264 308.307 144.465 307.949 143.947 C 307.591 143.428 306.989 143.169 306.145 143.169 C 305.3 143.169 304.699 143.428 304.341 143.947 C 303.983 144.465 303.804 145.264 303.804 146.344 C 303.804 147.413 303.98 148.204 304.333 148.717 C 304.686 149.23 305.284 149.486 306.129 149.486 Z  M 317.882 144.243 L 317.882 148.06 C 318.438 148.989 319.245 149.455 320.303 149.455 C 321.64 149.455 322.308 148.375 322.308 146.216 C 322.308 145.125 322.134 144.35 321.787 143.891 C 321.439 143.431 320.907 143.201 320.191 143.201 C 319.283 143.201 318.513 143.549 317.882 144.243 L 317.882 144.243 Z  M 317.882 153.944 L 316.471 153.944 L 316.471 142.223 L 317.882 142.223 L 317.882 143.041 C 318.502 142.335 319.368 141.982 320.48 141.982 C 321.527 141.982 322.337 142.338 322.909 143.049 C 323.481 143.76 323.767 144.831 323.767 146.264 C 323.767 147.696 323.473 148.789 322.885 149.543 C 322.297 150.296 321.469 150.673 320.4 150.673 C 319.908 150.673 319.427 150.574 318.957 150.376 C 318.486 150.179 318.128 149.919 317.882 149.599 L 317.882 153.944 Z  M 331.752 148.845 L 331.752 150.128 C 330.844 150.492 329.983 150.673 329.17 150.673 C 327.792 150.673 326.792 150.32 326.172 149.615 C 325.552 148.909 325.242 147.819 325.242 146.344 C 325.242 144.944 325.528 143.867 326.1 143.113 C 326.672 142.359 327.615 141.982 328.93 141.982 C 330.127 141.982 330.99 142.295 331.52 142.921 C 332.049 143.546 332.313 144.484 332.313 145.735 L 332.313 146.713 L 326.701 146.713 C 326.701 147.632 326.886 148.319 327.254 148.773 C 327.623 149.227 328.235 149.455 329.091 149.455 C 329.956 149.455 330.844 149.251 331.752 148.845 L 331.752 148.845 Z  M 326.717 145.622 L 330.902 145.622 C 330.902 144.735 330.755 144.094 330.461 143.698 C 330.167 143.303 329.652 143.105 328.914 143.105 C 328.187 143.105 327.65 143.311 327.303 143.722 C 326.955 144.134 326.76 144.767 326.717 145.622 L 326.717 145.622 Z  M 337.252 149.374 L 337.252 150.497 C 336.963 150.614 336.605 150.673 336.178 150.673 C 334.938 150.673 334.318 149.962 334.318 148.541 L 334.318 138.776 L 335.729 138.776 L 335.729 148.46 C 335.729 149.145 335.99 149.486 336.514 149.486 C 336.728 149.486 336.974 149.449 337.252 149.374 L 337.252 149.374 Z  M 338.294 146.328 C 338.294 143.431 339.561 141.982 342.094 141.982 C 344.628 141.982 345.894 143.431 345.894 146.328 C 345.894 149.225 344.628 150.673 342.094 150.673 C 339.561 150.673 338.294 149.225 338.294 146.328 Z  M 342.078 149.486 C 342.933 149.486 343.54 149.23 343.898 148.717 C 344.256 148.204 344.435 147.413 344.435 146.344 C 344.435 145.264 344.256 144.465 343.898 143.947 C 343.54 143.428 342.939 143.169 342.094 143.169 C 341.249 143.169 340.648 143.428 340.29 143.947 C 339.932 144.465 339.753 145.264 339.753 146.344 C 339.753 147.413 339.929 148.204 340.282 148.717 C 340.635 149.23 341.234 149.486 342.078 149.486 L 342.078 149.486 Z  M 359.443 150.433 L 358.032 150.433 L 358.032 145.237 C 358.032 144.5 357.885 143.976 357.591 143.666 C 357.298 143.356 356.851 143.201 356.253 143.201 C 355.323 143.201 354.532 143.591 353.879 144.372 L 353.879 150.433 L 352.469 150.433 L 352.469 142.223 L 353.815 142.223 L 353.815 143.169 C 354.115 142.827 354.51 142.544 355.002 142.319 C 355.494 142.095 356.023 141.982 356.589 141.982 C 357.455 141.982 358.147 142.247 358.666 142.776 C 359.184 143.305 359.443 144.062 359.443 145.045 L 359.443 150.433 Z  M 361.4 146.328 C 361.4 143.431 362.666 141.982 365.2 141.982 C 367.733 141.982 369 143.431 369 146.328 C 369 149.225 367.733 150.673 365.2 150.673 C 362.666 150.673 361.4 149.225 361.4 146.328 Z  M 365.184 149.486 C 366.039 149.486 366.645 149.23 367.003 148.717 C 367.362 148.204 367.541 147.413 367.541 146.344 C 367.541 145.264 367.362 144.465 367.003 143.947 C 366.645 143.428 366.044 143.169 365.2 143.169 C 364.355 143.169 363.754 143.428 363.396 143.947 C 363.038 144.465 362.859 145.264 362.859 146.344 C 362.859 147.413 363.035 148.204 363.388 148.717 C 363.741 149.23 364.339 149.486 365.184 149.486 Z  M 370.7 150.064 L 370.7 148.781 C 371.01 148.984 371.45 149.155 372.022 149.294 C 372.594 149.433 373.126 149.503 373.618 149.503 C 374.152 149.503 374.588 149.407 374.925 149.214 C 375.261 149.022 375.43 148.738 375.43 148.364 C 375.43 148.247 375.411 148.132 375.374 148.025 C 375.336 147.918 375.296 147.824 375.253 147.75 C 375.211 147.675 375.138 147.6 375.04 147.525 C 374.938 147.447 374.853 147.389 374.783 147.346 C 374.713 147.303 374.601 147.255 374.444 147.202 C 374.286 147.146 374.171 147.108 374.096 147.081 C 374.019 147.055 373.891 147.009 373.709 146.948 C 373.527 146.886 373.396 146.841 373.313 146.812 C 372.891 146.667 372.557 146.552 372.314 146.469 C 372.07 146.387 371.798 146.248 371.493 146.055 C 371.189 145.863 370.964 145.617 370.82 145.318 C 370.676 145.019 370.603 144.666 370.603 144.259 C 370.603 143.49 370.889 142.918 371.461 142.544 C 372.033 142.17 372.795 141.982 373.746 141.982 C 374.804 141.982 375.675 142.127 376.36 142.415 L 376.36 143.698 C 375.665 143.335 374.799 143.153 373.762 143.153 C 372.575 143.153 371.982 143.53 371.982 144.283 C 371.982 144.463 372.036 144.623 372.145 144.764 C 372.252 144.906 372.415 145.032 372.634 145.141 C 372.851 145.251 373.032 145.331 373.179 145.379 C 373.326 145.427 373.522 145.494 373.765 145.574 C 374.211 145.724 374.548 145.834 374.77 145.908 C 374.994 145.983 375.261 146.095 375.574 146.248 C 375.886 146.4 376.116 146.555 376.258 146.713 C 376.402 146.87 376.531 147.073 376.64 147.325 C 376.752 147.573 376.809 147.862 376.809 148.188 C 376.809 149.845 375.74 150.673 373.602 150.673 C 373.121 150.673 372.578 150.612 371.974 150.489 C 371.37 150.366 370.945 150.224 370.7 150.064 L 370.7 150.064 Z  M 378.428 150.064 L 378.428 148.781 C 378.738 148.984 379.179 149.155 379.751 149.294 C 380.323 149.433 380.855 149.503 381.346 149.503 C 381.881 149.503 382.316 149.407 382.653 149.214 C 382.99 149.022 383.158 148.738 383.158 148.364 C 383.158 148.247 383.139 148.132 383.102 148.025 C 383.064 147.918 383.025 147.824 382.982 147.75 C 382.939 147.675 382.867 147.6 382.768 147.525 C 382.666 147.447 382.581 147.389 382.511 147.346 C 382.442 147.303 382.33 147.255 382.172 147.202 C 382.014 147.146 381.899 147.108 381.825 147.081 C 381.747 147.055 381.619 147.009 381.437 146.948 C 381.255 146.886 381.124 146.841 381.042 146.812 C 380.619 146.667 380.285 146.552 380.042 146.469 C 379.799 146.387 379.526 146.248 379.222 146.055 C 378.917 145.863 378.693 145.617 378.548 145.318 C 378.404 145.019 378.332 144.666 378.332 144.259 C 378.332 143.49 378.618 142.918 379.19 142.544 C 379.762 142.17 380.523 141.982 381.475 141.982 C 382.533 141.982 383.404 142.127 384.088 142.415 L 384.088 143.698 C 383.393 143.335 382.528 143.153 381.491 143.153 C 380.304 143.153 379.711 143.53 379.711 144.283 C 379.711 144.463 379.764 144.623 379.874 144.764 C 379.981 144.906 380.144 145.032 380.363 145.141 C 380.579 145.251 380.761 145.331 380.908 145.379 C 381.055 145.427 381.25 145.494 381.493 145.574 C 381.94 145.724 382.276 145.834 382.498 145.908 C 382.723 145.983 382.99 146.095 383.303 146.248 C 383.615 146.4 383.845 146.555 383.987 146.713 C 384.131 146.87 384.259 147.073 384.369 147.325 C 384.481 147.573 384.537 147.862 384.537 148.188 C 384.537 149.845 383.468 150.673 381.33 150.673 C 380.849 150.673 380.307 150.612 379.703 150.489 C 379.099 150.366 378.674 150.224 378.428 150.064 L 378.428 150.064 Z  M 386.06 146.328 C 386.06 143.431 387.327 141.982 389.86 141.982 C 392.394 141.982 393.661 143.431 393.661 146.328 C 393.661 149.225 392.394 150.673 389.86 150.673 C 387.327 150.673 386.06 149.225 386.06 146.328 Z  M 389.845 149.486 C 390.7 149.486 391.306 149.23 391.664 148.717 C 392.022 148.204 392.202 147.413 392.202 146.344 C 392.202 145.264 392.022 144.465 391.664 143.947 C 391.306 143.428 390.705 143.169 389.86 143.169 C 389.016 143.169 388.415 143.428 388.057 143.947 C 387.698 144.465 387.52 145.264 387.52 146.344 C 387.52 147.413 387.696 148.204 388.049 148.717 C 388.401 149.23 389 149.486 389.845 149.486 Z  M 401.598 144.243 L 401.598 148.06 C 402.154 148.989 402.961 149.455 404.019 149.455 C 405.355 149.455 406.023 148.375 406.023 146.216 C 406.023 145.125 405.85 144.35 405.502 143.891 C 405.155 143.431 404.623 143.201 403.907 143.201 C 402.998 143.201 402.229 143.549 401.598 144.243 L 401.598 144.243 Z  M 401.598 153.944 L 400.187 153.944 L 400.187 142.223 L 401.598 142.223 L 401.598 143.041 C 402.218 142.335 403.084 141.982 404.195 141.982 C 405.243 141.982 406.053 142.338 406.625 143.049 C 407.197 143.76 407.482 144.831 407.482 146.264 C 407.482 147.696 407.188 148.789 406.601 149.543 C 406.013 150.296 405.184 150.673 404.115 150.673 C 403.624 150.673 403.142 150.574 402.672 150.376 C 402.202 150.179 401.844 149.919 401.598 149.599 L 401.598 153.944 Z  M 409.086 146.328 C 409.086 143.431 410.353 141.982 412.886 141.982 C 415.42 141.982 416.686 143.431 416.686 146.328 C 416.686 149.225 415.42 150.673 412.886 150.673 C 410.353 150.673 409.086 149.225 409.086 146.328 Z  M 412.87 149.486 C 413.725 149.486 414.332 149.23 414.69 148.717 C 415.048 148.204 415.227 147.413 415.227 146.344 C 415.227 145.264 415.048 144.465 414.69 143.947 C 414.332 143.428 413.731 143.169 412.886 143.169 C 412.041 143.169 411.44 143.428 411.082 143.947 C 410.724 144.465 410.545 145.264 410.545 146.344 C 410.545 147.413 410.721 148.204 411.074 148.717 C 411.427 149.23 412.026 149.486 412.87 149.486 L 412.87 149.486 Z  M 420.695 150.433 L 417.648 142.223 L 419.091 142.223 L 421.433 148.669 L 423.773 142.223 L 425.217 142.223 L 422.17 150.433 L 420.695 150.433 Z  M 426.179 146.328 C 426.179 143.431 427.445 141.982 429.979 141.982 C 432.512 141.982 433.779 143.431 433.779 146.328 C 433.779 149.225 432.512 150.673 429.979 150.673 C 427.445 150.673 426.179 149.225 426.179 146.328 Z  M 429.963 149.486 C 430.818 149.486 431.424 149.23 431.782 148.717 C 432.141 148.204 432.32 147.413 432.32 146.344 C 432.32 145.264 432.141 144.465 431.782 143.947 C 431.424 143.428 430.823 143.169 429.979 143.169 C 429.134 143.169 428.533 143.428 428.175 143.947 C 427.817 144.465 427.638 145.264 427.638 146.344 C 427.638 147.413 427.814 148.204 428.167 148.717 C 428.52 149.23 429.118 149.486 429.963 149.486 L 429.963 149.486 Z " fill-rule="evenodd" fill="rgb(27,25,24)"/><path d=" M 198.345 47.78 C 198.193 47.78 198.063 47.727 197.956 47.62 C 197.85 47.513 197.796 47.383 197.796 47.231 L 197.796 32.335 C 197.796 32.168 197.85 32.03 197.956 31.924 C 198.063 31.817 198.193 31.763 198.345 31.763 L 204.477 31.763 C 205.667 31.763 206.704 31.95 207.589 32.324 C 208.474 32.698 209.16 33.262 209.649 34.017 C 210.137 34.772 210.381 35.714 210.381 36.843 C 210.381 37.987 210.137 38.929 209.649 39.669 C 209.16 40.409 208.474 40.961 207.589 41.328 C 206.704 41.694 205.667 41.877 204.477 41.877 L 201.068 41.877 L 201.068 47.231 C 201.068 47.383 201.019 47.513 200.919 47.62 C 200.82 47.727 200.687 47.78 200.519 47.78 L 198.345 47.78 Z  M 201.022 39.337 L 204.363 39.337 C 205.248 39.337 205.927 39.127 206.399 38.708 C 206.872 38.288 207.109 37.667 207.109 36.843 C 207.109 36.08 206.888 35.466 206.445 35.001 C 206.003 34.536 205.309 34.303 204.363 34.303 L 201.022 34.303 L 201.022 39.337 Z  M 213.424 47.78 C 213.271 47.78 213.142 47.727 213.035 47.62 C 212.928 47.513 212.875 47.383 212.875 47.231 L 212.875 32.335 C 212.875 32.168 212.928 32.03 213.035 31.924 C 213.142 31.817 213.271 31.763 213.424 31.763 L 219.35 31.763 C 221.196 31.763 222.653 32.191 223.72 33.045 C 224.788 33.899 225.322 35.142 225.322 36.774 C 225.322 37.903 225.044 38.841 224.487 39.589 C 223.93 40.336 223.187 40.878 222.256 41.213 L 225.597 47.048 C 225.642 47.139 225.665 47.223 225.665 47.3 C 225.665 47.437 225.616 47.551 225.517 47.643 C 225.418 47.734 225.307 47.78 225.185 47.78 L 223.103 47.78 C 222.843 47.78 222.645 47.711 222.508 47.574 C 222.37 47.437 222.264 47.3 222.187 47.162 L 219.236 41.739 L 216.055 41.739 L 216.055 47.231 C 216.055 47.383 216.006 47.513 215.906 47.62 C 215.808 47.727 215.674 47.78 215.506 47.78 L 213.424 47.78 Z  M 216.055 39.154 L 219.282 39.154 C 220.212 39.154 220.906 38.944 221.364 38.525 C 221.821 38.105 222.05 37.514 222.05 36.752 C 222.05 35.989 221.825 35.39 221.375 34.955 C 220.925 34.52 220.227 34.303 219.282 34.303 L 216.055 34.303 L 216.055 39.154 Z  M 228.823 47.78 C 228.67 47.78 228.541 47.727 228.434 47.62 C 228.327 47.513 228.274 47.383 228.274 47.231 L 228.274 32.335 C 228.274 32.168 228.327 32.03 228.434 31.924 C 228.541 31.817 228.67 31.763 228.823 31.763 L 238.891 31.763 C 239.058 31.763 239.195 31.817 239.303 31.924 C 239.409 32.03 239.463 32.168 239.463 32.335 L 239.463 33.846 C 239.463 33.998 239.409 34.128 239.303 34.234 C 239.195 34.341 239.058 34.395 238.891 34.395 L 231.363 34.395 L 231.363 38.445 L 238.387 38.445 C 238.555 38.445 238.692 38.494 238.799 38.593 C 238.906 38.693 238.959 38.826 238.959 38.994 L 238.959 40.412 C 238.959 40.58 238.906 40.714 238.799 40.813 C 238.692 40.912 238.555 40.961 238.387 40.961 L 231.363 40.961 L 231.363 45.149 L 239.074 45.149 C 239.241 45.149 239.379 45.202 239.486 45.309 C 239.592 45.416 239.646 45.553 239.646 45.721 L 239.646 47.231 C 239.646 47.383 239.592 47.513 239.486 47.62 C 239.379 47.727 239.241 47.78 239.074 47.78 L 228.823 47.78 Z  M 243.055 47.78 C 242.902 47.78 242.773 47.727 242.666 47.62 C 242.559 47.513 242.506 47.383 242.506 47.231 L 242.506 32.335 C 242.506 32.168 242.559 32.03 242.666 31.924 C 242.773 31.817 242.902 31.763 243.055 31.763 L 252.985 31.763 C 253.153 31.763 253.29 31.817 253.397 31.924 C 253.504 32.03 253.557 32.168 253.557 32.335 L 253.557 33.937 C 253.557 34.105 253.504 34.238 253.397 34.337 C 253.29 34.437 253.153 34.486 252.985 34.486 L 245.64 34.486 L 245.64 38.834 L 252.528 38.834 C 252.695 38.834 252.833 38.887 252.939 38.994 C 253.046 39.101 253.1 39.238 253.1 39.406 L 253.1 41.007 C 253.1 41.16 253.046 41.29 252.939 41.396 C 252.833 41.503 252.695 41.557 252.528 41.557 L 245.64 41.557 L 245.64 47.231 C 245.64 47.383 245.587 47.513 245.48 47.62 C 245.374 47.727 245.236 47.78 245.069 47.78 L 243.055 47.78 Z  M 256.806 47.78 C 256.654 47.78 256.524 47.727 256.418 47.62 C 256.311 47.513 256.257 47.383 256.257 47.231 L 256.257 32.335 C 256.257 32.168 256.311 32.03 256.418 31.924 C 256.524 31.817 256.654 31.763 256.806 31.763 L 266.874 31.763 C 267.042 31.763 267.179 31.817 267.286 31.924 C 267.393 32.03 267.446 32.168 267.446 32.335 L 267.446 33.846 C 267.446 33.998 267.393 34.128 267.286 34.234 C 267.179 34.341 267.042 34.395 266.874 34.395 L 259.346 34.395 L 259.346 38.445 L 266.371 38.445 C 266.539 38.445 266.676 38.494 266.783 38.593 C 266.889 38.693 266.943 38.826 266.943 38.994 L 266.943 40.412 C 266.943 40.58 266.889 40.714 266.783 40.813 C 266.676 40.912 266.539 40.961 266.371 40.961 L 259.346 40.961 L 259.346 45.149 L 267.057 45.149 C 267.225 45.149 267.362 45.202 267.469 45.309 C 267.576 45.416 267.629 45.553 267.629 45.721 L 267.629 47.231 C 267.629 47.383 267.576 47.513 267.469 47.62 C 267.362 47.727 267.225 47.78 267.057 47.78 L 256.806 47.78 Z  M 271.038 47.78 C 270.886 47.78 270.756 47.727 270.65 47.62 C 270.543 47.513 270.489 47.383 270.489 47.231 L 270.489 32.312 C 270.489 32.16 270.543 32.03 270.65 31.924 C 270.756 31.817 270.886 31.763 271.038 31.763 L 273.189 31.763 C 273.357 31.763 273.491 31.817 273.59 31.924 C 273.689 32.03 273.739 32.16 273.739 32.312 L 273.739 47.231 C 273.739 47.383 273.689 47.513 273.59 47.62 C 273.491 47.727 273.357 47.78 273.189 47.78 L 271.038 47.78 Z  M 281.404 47.78 C 281.251 47.78 281.121 47.727 281.014 47.62 C 280.908 47.513 280.854 47.383 280.854 47.231 L 280.854 34.578 L 276.621 34.578 C 276.469 34.578 276.339 34.524 276.232 34.417 C 276.126 34.311 276.072 34.181 276.072 34.029 L 276.072 32.335 C 276.072 32.168 276.126 32.03 276.232 31.924 C 276.339 31.817 276.469 31.763 276.621 31.763 L 288.291 31.763 C 288.458 31.763 288.596 31.817 288.703 31.924 C 288.809 32.03 288.863 32.168 288.863 32.335 L 288.863 34.029 C 288.863 34.181 288.809 34.311 288.703 34.417 C 288.596 34.524 288.458 34.578 288.291 34.578 L 284.081 34.578 L 284.081 47.231 C 284.081 47.383 284.027 47.513 283.92 47.62 C 283.814 47.727 283.676 47.78 283.508 47.78 L 281.404 47.78 Z  M 297.558 48.009 C 296.23 48.009 295.079 47.784 294.102 47.334 C 293.126 46.884 292.371 46.19 291.837 45.252 C 291.303 44.314 291.036 43.112 291.036 41.648 L 291.036 32.335 C 291.036 32.168 291.09 32.03 291.197 31.924 C 291.303 31.817 291.433 31.763 291.586 31.763 L 293.668 31.763 C 293.836 31.763 293.969 31.817 294.068 31.924 C 294.167 32.03 294.217 32.168 294.217 32.335 L 294.217 41.648 C 294.217 42.899 294.514 43.826 295.109 44.428 C 295.704 45.031 296.52 45.332 297.558 45.332 C 298.595 45.332 299.407 45.031 299.994 44.428 C 300.582 43.826 300.875 42.899 300.875 41.648 L 300.875 32.335 C 300.875 32.168 300.929 32.03 301.036 31.924 C 301.142 31.817 301.28 31.763 301.447 31.763 L 303.507 31.763 C 303.674 31.763 303.808 31.817 303.907 31.924 C 304.006 32.03 304.056 32.168 304.056 32.335 L 304.056 41.648 C 304.056 43.112 303.793 44.314 303.267 45.252 C 302.74 46.19 301.993 46.884 301.024 47.334 C 300.055 47.784 298.9 48.009 297.558 48.009 L 297.558 48.009 Z  M 308.037 47.78 C 307.885 47.78 307.755 47.727 307.648 47.62 C 307.542 47.513 307.488 47.383 307.488 47.231 L 307.488 32.335 C 307.488 32.168 307.542 32.03 307.648 31.924 C 307.755 31.817 307.885 31.763 308.037 31.763 L 313.963 31.763 C 315.809 31.763 317.266 32.191 318.334 33.045 C 319.401 33.899 319.935 35.142 319.935 36.774 C 319.935 37.903 319.657 38.841 319.1 39.589 C 318.543 40.336 317.8 40.878 316.869 41.213 L 320.21 47.048 C 320.256 47.139 320.279 47.223 320.279 47.3 C 320.279 47.437 320.229 47.551 320.13 47.643 C 320.031 47.734 319.92 47.78 319.798 47.78 L 317.716 47.78 C 317.457 47.78 317.258 47.711 317.121 47.574 C 316.984 47.437 316.877 47.3 316.801 47.162 L 313.849 41.739 L 310.669 41.739 L 310.669 47.231 C 310.669 47.383 310.619 47.513 310.52 47.62 C 310.421 47.727 310.287 47.78 310.119 47.78 L 308.037 47.78 Z  M 310.669 39.154 L 313.895 39.154 C 314.825 39.154 315.519 38.944 315.977 38.525 C 316.435 38.105 316.663 37.514 316.663 36.752 C 316.663 35.989 316.438 35.39 315.988 34.955 C 315.538 34.52 314.84 34.303 313.895 34.303 L 310.669 34.303 L 310.669 39.154 Z  M 321.903 47.78 C 321.781 47.78 321.671 47.734 321.571 47.643 C 321.472 47.551 321.423 47.437 321.423 47.3 C 321.423 47.239 321.438 47.17 321.469 47.094 L 326.983 32.335 C 327.029 32.183 327.116 32.049 327.246 31.935 C 327.375 31.821 327.555 31.763 327.784 31.763 L 330.277 31.763 C 330.506 31.763 330.682 31.821 330.804 31.935 C 330.926 32.049 331.017 32.183 331.078 32.335 L 336.593 47.094 C 336.608 47.17 336.616 47.239 336.616 47.3 C 336.616 47.437 336.57 47.551 336.478 47.643 C 336.387 47.734 336.28 47.78 336.158 47.78 L 334.167 47.78 C 333.954 47.78 333.797 47.731 333.698 47.631 C 333.599 47.532 333.534 47.437 333.504 47.345 L 332.428 44.554 L 325.633 44.554 L 324.557 47.345 C 324.527 47.437 324.462 47.532 324.363 47.631 C 324.264 47.731 324.107 47.78 323.894 47.78 L 321.903 47.78 Z  M 326.433 41.922 L 331.628 41.922 L 329.019 34.852 L 326.433 41.922 Z  M 343.938 47.78 C 343.785 47.78 343.655 47.727 343.549 47.62 C 343.442 47.513 343.388 47.383 343.388 47.231 L 343.388 32.335 C 343.388 32.168 343.442 32.03 343.549 31.924 C 343.655 31.817 343.785 31.763 343.938 31.763 L 349.521 31.763 C 351.061 31.763 352.331 32 353.33 32.473 C 354.329 32.946 355.084 33.647 355.596 34.578 C 356.107 35.508 356.37 36.645 356.385 37.987 C 356.415 38.658 356.431 39.253 356.431 39.772 C 356.431 40.29 356.415 40.878 356.385 41.534 C 356.354 42.952 356.095 44.123 355.607 45.046 C 355.119 45.969 354.383 46.655 353.399 47.105 C 352.415 47.555 351.16 47.78 349.635 47.78 L 343.938 47.78 Z  M 346.569 45.149 L 349.521 45.149 C 350.375 45.149 351.069 45.027 351.603 44.783 C 352.137 44.539 352.529 44.146 352.781 43.604 C 353.033 43.063 353.166 42.35 353.182 41.465 C 353.197 41.007 353.208 40.607 353.216 40.264 C 353.224 39.92 353.224 39.577 353.216 39.234 C 353.208 38.891 353.197 38.498 353.182 38.056 C 353.151 36.805 352.838 35.882 352.243 35.287 C 351.649 34.692 350.703 34.395 349.406 34.395 L 346.569 34.395 L 346.569 45.149 Z  M 360.023 47.78 C 359.871 47.78 359.741 47.727 359.634 47.62 C 359.527 47.513 359.474 47.383 359.474 47.231 L 359.474 32.335 C 359.474 32.168 359.527 32.03 359.634 31.924 C 359.741 31.817 359.871 31.763 360.023 31.763 L 370.091 31.763 C 370.258 31.763 370.396 31.817 370.503 31.924 C 370.609 32.03 370.663 32.168 370.663 32.335 L 370.663 33.846 C 370.663 33.998 370.609 34.128 370.503 34.234 C 370.396 34.341 370.258 34.395 370.091 34.395 L 362.563 34.395 L 362.563 38.445 L 369.587 38.445 C 369.755 38.445 369.892 38.494 369.999 38.593 C 370.106 38.693 370.159 38.826 370.159 38.994 L 370.159 40.412 C 370.159 40.58 370.106 40.714 369.999 40.813 C 369.892 40.912 369.755 40.961 369.587 40.961 L 362.563 40.961 L 362.563 45.149 L 370.274 45.149 C 370.442 45.149 370.579 45.202 370.686 45.309 C 370.792 45.416 370.846 45.553 370.846 45.721 L 370.846 47.231 C 370.846 47.383 370.792 47.513 370.686 47.62 C 370.579 47.727 370.442 47.78 370.274 47.78 L 360.023 47.78 Z " fill-rule="evenodd" fill="rgb(27,25,24)"/></g></g></svg>